<svg xmlns="http://www.w3.org/2000/svg" viewBox="0 0 900 840"><defs><linearGradient id="g" x1="0" x2="1" y1="0" y2="1"><stop stop-color="#312e81"/><stop offset="1" stop-color="#0f172a"/></linearGradient></defs><rect width="900" height="840" fill="url(#g)"/><text x="450" y="108" text-anchor="middle" font-family="Poppins,Arial" font-size="44" font-weight="700" fill="#fff">Premium Apps Combo</text><g transform="translate(128 176)"><g fill="#fff"><rect width="110" height="110" rx="24"/><rect x="134" width="110" height="110" rx="24"/><rect x="268" width="110" height="110" rx="24"/><rect x="402" width="110" height="110" rx="24"/><rect x="536" width="110" height="110" rx="24"/><rect y="140" width="110" height="110" rx="24"/><rect x="134" y="140" width="110" height="110" rx="24"/><rect x="268" y="140" width="110" height="110" rx="24"/><rect x="402" y="140" width="110" height="110" rx="24"/><rect x="536" y="140" width="110" height="110" rx="24"/></g><g font-family="Poppins,Arial" font-size="34" font-weight="700" text-anchor="middle"><text x="55" y="68" fill="#ef4444">YT</text><text x="189" y="68" fill="#06b6d4">CS</text><text x="323" y="68" fill="#2563eb">LR</text><text x="457" y="68" fill="#111827">AI</text><text x="591" y="68" fill="#22c55e">SP</text><text x="55" y="208" fill="#a855f7">PK</text><text x="189" y="208" fill="#f97316">RM</text><text x="323" y="208" fill="#0ea5e9">VC</text><text x="457" y="208" fill="#ef4444">KN</text><text x="591" y="208" fill="#14b8a6">20+</text></g></g><rect x="244" y="648" width="412" height="72" rx="36" fill="#0f172a"/><text x="450" y="694" text-anchor="middle" font-family="Poppins,Arial" font-size="30" font-weight="700" fill="#fff">Lifetime Access</text></svg>
