<svg xmlns="http://www.w3.org/2000/svg" viewBox="0 0 900 840"><rect width="900" height="840" fill="#1e293b"/><text x="450" y="104" text-anchor="middle" font-family="Poppins,Arial" font-size="42" font-weight="700" fill="#fff">20+ Premium Apps</text><g transform="translate(138 166)" fill="#fff"><rect width="86" height="86" rx="18"/><rect x="108" width="86" height="86" rx="18"/><rect x="216" width="86" height="86" rx="18"/><rect x="324" width="86" height="86" rx="18"/><rect x="432" width="86" height="86" rx="18"/><rect x="540" width="86" height="86" rx="18"/><rect y="116" width="86" height="86" rx="18"/><rect x="108" y="116" width="86" height="86" rx="18"/><rect x="216" y="116" width="86" height="86" rx="18"/><rect x="324" y="116" width="86" height="86" rx="18"/><rect x="432" y="116" width="86" height="86" rx="18"/><rect x="540" y="116" width="86" height="86" rx="18"/><rect y="232" width="86" height="86" rx="18"/><rect x="108" y="232" width="86" height="86" rx="18"/><rect x="216" y="232" width="86" height="86" rx="18"/><rect x="324" y="232" width="86" height="86" rx="18"/><rect x="432" y="232" width="86" height="86" rx="18"/><rect x="540" y="232" width="86" height="86" rx="18"/></g><text x="450" y="560" text-anchor="middle" font-family="Poppins,Arial" font-size="56" font-weight="700" fill="#67e8f9">Mega Bundle</text><rect x="252" y="652" width="396" height="72" rx="36" fill="#22c55e"/><text x="450" y="698" text-anchor="middle" font-family="Poppins,Arial" font-size="30" font-weight="700" fill="#052e16">Instant Setup</text></svg>
